<?xml version="1.0" encoding="UTF-8"?> <!-- Generator: Adobe Illustrator 25.0.0, SVG Export Plug-In . SVG Version: 6.00 Build 0) --> <svg xmlns="http://www.w3.org/2000/svg" xmlns:xlink="http://www.w3.org/1999/xlink" version="1.1" id="Layer_1" x="0px" y="0px" width="200px" height="32,2px" viewBox="0 0 400 64.4" style="enable-background:new 0 0 400 64.4;" xml:space="preserve"> <style type="text/css"> .st0{fill:#FFC629;} .st1{fill:#205A41;} </style> <g> <g> <path class="st0" d="M399.7,36.5l-6-33.6c-0.5-2.4-2.4-3.1-3.9-2.8l-35.2,6.2c-1.1,0.2-1.7,0.5-2.7,1.3c0,0-8.9,8.5-10.2,9.8 c-1.3,1.3-2.1,3.1-1.7,5.7l6.8,38.5c0.5,2.4,2.6,3,4,2.8c1.5-0.2,36.2-6.3,38-6.7c1.8-0.4,3.7-1.6,5-4.1l5.3-11.5 C400.1,39.8,400.2,39.3,399.7,36.5z"></path> <g> <path class="st1" d="M380.8,7.3c-1,0.8-3.8,1.7-6.2,2.1c-2.5,0.3-3.7,0-2.7-0.8c1-0.8,3.8-1.7,6.2-2.1 C380.6,6.1,381.8,6.5,380.8,7.3z"></path> <polygon class="st1" points="375.2,5.8 367.3,8.2 361.7,8.2 369.5,5.8 "></polygon> <polygon class="st1" points="354.2,7.7 361.9,6.3 359.6,8.8 351.7,10 "></polygon> <rect x="350.1" y="51" transform="matrix(0.9848 -0.1739 0.1739 0.9848 -4.2189 62.4806)" class="st1" width="8.7" height="8.7"></rect> <polygon class="st1" points="357.8,47.8 352.2,41.2 355.2,33 360.7,39.7 "></polygon> <path class="st1" d="M365.8,34c-2.7,0.5-5.2-1.3-5.7-4c-0.5-2.7,1.3-5.2,4-5.7c2.7-0.5,5.2,1.3,5.7,4 C370.3,31,368.5,33.6,365.8,34z"></path> <polygon class="st1" points="376.9,28.1 370.2,20.2 380.4,18.4 "></polygon> <polygon class="st1" points="380.5,11.7 372.9,11.8 382.7,8.9 "></polygon> <polygon class="st1" points="392.7,6.7 393.1,15.6 390.7,9.5 "></polygon> <path class="st1" d="M390,14.4c0.5-0.8,1.2,0.6,1.7,3c0.4,2.4,0.4,5-0.1,5.8c-0.5,0.8-1.2-0.6-1.7-3 C389.5,17.8,389.6,15.2,390,14.4z"></path> <polygon class="st1" points="390,24.4 392.1,30.1 392.5,38.5 390.4,32.8 "></polygon> <polygon class="st1" points="392.6,51.3 391.2,43.2 392.7,40.1 394.1,48.1 "></polygon> </g> </g> <g> <g> <path class="st1" d="M11.9,48.2H0V15.9h11.9c6.8,0,21.4-0.7,21.4,16.2C33.3,48.9,18.7,48.2,11.9,48.2z M12.9,20.8H7.8v22.5h5.1 c4.1,0,12.1,0.8,12.1-11.2C24.9,20.2,16.9,20.8,12.9,20.8z"></path> <path class="st1" d="M51.4,48.7c-6.9-0.1-13.1-1.1-13.1-7.9c0-7.7,10.5-7.3,18.6-7.3c0-3.8-0.1-5.5-7.1-5.5 c-3.8,0-7.7,0.5-9.6,0.9v-4.6c2.4-0.5,7-0.9,10-0.9c6.8,0,14.3,0.6,14.3,8.1v16.6C59.6,48.5,55.6,48.8,51.4,48.7z M56.8,37.7 c-1,0-3.6,0-4.5,0c-3.2,0-6.1,0.3-6.1,3.5c0,3.2,2.9,3.3,6.1,3.3c1.6,0,2.9-0.1,4.5-0.3V37.7z"></path> <path class="st1" d="M117.8,48.6c-4,0-7.7-0.5-10.5-1v-4.6c2.9,0.6,5.9,1.2,9.3,1.2c2.9,0,6.9-0.6,6.9-2.9c0-2.3-2.9-2.4-7.5-3.3 c-1.6-0.3-8.9-1.4-8.9-7.1c0-6.1,7.4-7.5,12.6-7.5c5.5,0,8.7,0.6,10,0.7v4.3c-0.8-0.1-4.8-0.8-8.5-0.8c-2.4,0-6.2,0.4-6.2,2.6 c0,2.2,4.2,2.6,7,3c3.6,0.6,9.7,1.9,9.7,7C131.6,45.6,126.2,48.6,117.8,48.6z"></path> <path class="st1" d="M156.9,48.2L145.8,36v12.2h-7.7V15.8h7.7v18.8l11.4-10.7h9.2l-12.8,11.2l13.3,13H156.9z"></path> <path class="st1" d="M305.7,48.2H298V15.8h7.7V48.2z"></path> <path class="st1" d="M91.8,48.2V32.4c0-1.3-0.2-4-4.1-4c-2.7,0-5.2,0.3-7.1,0.5v19.3h-7.7V24.7c7.5-0.8,13.8-1.2,17.9-1.1 c4.1,0.1,8.8,2,8.8,7.6v17.1H91.8z"></path> <path class="st1" d="M267.4,47.3c-2,0.7-4.6,1-7.5,1c-1.6,0-2.6-0.1-4.2-0.3v9.6H248V23.9c2.3-0.1,7.2-0.3,10.2-0.3 c4.1,0,7.5,0.3,10.8,1.9c4.7,2.3,6,6.2,6,10.1C275,40.3,272.9,45.3,267.4,47.3z M259.8,28.2c-2.9,0-4,0.2-4,0.2v15 c0,0,1.6,0.3,3.9,0.3c5.9,0,7.5-3.3,7.5-7.6C267.1,31.3,265.6,28.2,259.8,28.2z"></path> <path class="st1" d="M168.5,36.3c0-7.9,4.8-12.9,14.6-12.9c10.6,0,14.2,4.8,14,14.5h-20.4c0.5,5.5,5.2,6.6,10,6.6 c3.3,0,5.8-0.4,8.2-0.8v4.2c0,0-4.8,1-10.1,1C175.8,48.7,168.5,45.6,168.5,36.3z M182.8,27.6c-4.4,0-6.1,2.9-6.1,6.2H189 C189,30.7,187.9,27.6,182.8,27.6z"></path> <g> <g> <path class="st1" d="M281.4,48.2V26.5h7.7v21.6H281.4z"></path> </g> <g> <path class="st1" d="M281.4,22.8v-7h7.7v7H281.4z"></path> </g> </g> <path class="st1" d="M214.3,47.2V42c0,0,6.4,1.3,11.3,1.3c3.3,0,8.7-0.8,8.7-4.4c0-6.4-20.3-1.7-20.3-13.1c0-7.6,7.5-10,15.9-10 c5.3,0,9.8,0.9,9.8,0.9v5c0,0-4.4-0.9-9-0.9c-2.9,0-8.4,0.7-8.4,4.1c0,7.1,20.4,1,20.4,13.3c0,7.6-9,10-16.4,10 C219.5,48.4,214.3,47.2,214.3,47.2z"></path> </g> </g> </g> </svg> 